<?xml version="1.0" encoding="UTF-8"?>
<svg xmlns="http://www.w3.org/2000/svg" width="2000" height="1120" viewBox="0 0 2000 1120">
  <defs>
    <style>
      .title { font: 700 30px 'Malgun Gothic', 'Apple SD Gothic Neo', sans-serif; fill: #111827; }
      .section { fill: #f8fafc; stroke: #cbd5e1; stroke-width: 2; }
      .section-label { font: 700 20px 'Malgun Gothic', 'Apple SD Gothic Neo', sans-serif; fill: #334155; }
      .label { font: 700 14px 'Malgun Gothic', 'Apple SD Gothic Neo', sans-serif; fill: #0f172a; text-anchor: middle; }
      .small { font: 500 13px 'Malgun Gothic', 'Apple SD Gothic Neo', sans-serif; fill: #334155; text-anchor: middle; }
      .box-blue { fill: #dbeafe; stroke: #3b82f6; stroke-width: 2; }
      .box-purple { fill: #efe1ff; stroke: #8b5cf6; stroke-width: 2; }
      .box-purple-soft { fill: #ede9fe; stroke: #7c3aed; stroke-width: 2; }
      .box-green { fill: #dcfce7; stroke: #16a34a; stroke-width: 2; }
      .box-orange { fill: #ffedd5; stroke: #f97316; stroke-width: 2; }
      .box-red { fill: #ffe4e6; stroke: #ef4444; stroke-width: 2; }
      .legend { font: 600 13px 'Malgun Gothic', 'Apple SD Gothic Neo', sans-serif; fill: #334155; }
    </style>

    <marker id="arrow-blue" markerWidth="10" markerHeight="10" refX="8" refY="5" orient="auto" markerUnits="strokeWidth">
      <path d="M0,0 L10,5 L0,10 z" fill="#3b82f6"/>
    </marker>
    <marker id="arrow-purple" markerWidth="10" markerHeight="10" refX="8" refY="5" orient="auto" markerUnits="strokeWidth">
      <path d="M0,0 L10,5 L0,10 z" fill="#8b5cf6"/>
    </marker>
    <marker id="arrow-green" markerWidth="10" markerHeight="10" refX="8" refY="5" orient="auto" markerUnits="strokeWidth">
      <path d="M0,0 L10,5 L0,10 z" fill="#16a34a"/>
    </marker>
    <marker id="arrow-orange" markerWidth="10" markerHeight="10" refX="8" refY="5" orient="auto" markerUnits="strokeWidth">
      <path d="M0,0 L10,5 L0,10 z" fill="#f97316"/>
    </marker>
    <marker id="arrow-red" markerWidth="10" markerHeight="10" refX="8" refY="5" orient="auto" markerUnits="strokeWidth">
      <path d="M0,0 L10,5 L0,10 z" fill="#ef4444"/>
    </marker>
  </defs>

  <rect width="2000" height="1120" fill="#ffffff"/>
  <text x="90" y="55" class="title">핀픽 시스템 아키텍처</text>

  <rect x="70" y="90" width="1860" height="230" rx="22" class="section"/>
  <rect x="70" y="360" width="1860" height="220" rx="22" class="section"/>
  <rect x="70" y="620" width="1860" height="360" rx="22" class="section"/>
  <text x="95" y="122" class="section-label">입력 / 운영 / 적재 소스</text>
  <text x="95" y="392" class="section-label">실시간 서비스 계층</text>
  <text x="95" y="652" class="section-label">저장소 / 메시지 / 외부 연동</text>

  <g>
    <line x1="1470" y1="48" x2="1505" y2="48" fill="none" stroke="#8b5cf6" stroke-width="4" marker-end="url(#arrow-purple)"/>
    <text x="1520" y="53" class="legend">에이전트</text>
    <line x1="1605" y1="48" x2="1640" y2="48" fill="none" stroke="#3b82f6" stroke-width="3" marker-end="url(#arrow-blue)"/>
    <text x="1655" y="53" class="legend">서비스</text>
    <line x1="1730" y1="48" x2="1765" y2="48" fill="none" stroke="#16a34a" stroke-width="3.5" marker-end="url(#arrow-green)"/>
    <text x="1780" y="53" class="legend">데이터</text>
    <line x1="1470" y1="74" x2="1505" y2="74" fill="none" stroke="#f97316" stroke-width="3.5" marker-end="url(#arrow-orange)"/>
    <text x="1520" y="79" class="legend">메시징</text>
    <line x1="1605" y1="74" x2="1640" y2="74" fill="none" stroke="#ef4444" stroke-width="3.5" marker-end="url(#arrow-red)"/>
    <text x="1655" y="79" class="legend">외부 API</text>
  </g>

  <!-- Top row -->
  <g>
    <rect x="110" y="160" width="180" height="86" rx="18" class="box-blue"/>
    <text x="200" y="193" class="label">사용자 브라우저</text>
    <text x="200" y="217" class="small">웹 화면 + FAB 상담</text>

    <rect x="330" y="164" width="150" height="78" rx="18" class="box-blue"/>
    <text x="405" y="210" class="label">관리자 / 운영자</text>

    <rect x="540" y="158" width="230" height="90" rx="18" class="box-purple"/>
    <text x="655" y="191" class="label">bank_agents.py</text>
    <text x="655" y="215" class="small">에이전트 워크플로</text>

    <rect x="830" y="164" width="190" height="78" rx="18" class="box-purple-soft"/>
    <text x="925" y="196" class="label">fetch_fss.py</text>
    <text x="925" y="220" class="small">금융상품 수집</text>

    <rect x="1060" y="164" width="190" height="78" rx="18" class="box-purple-soft"/>
    <text x="1155" y="196" class="label">fetch_bok.py</text>
    <text x="1155" y="220" class="small">경제지표 수집</text>

    <rect x="1290" y="158" width="240" height="90" rx="18" class="box-purple-soft"/>
    <text x="1410" y="191" class="label">app.py</text>
    <text x="1410" y="215" class="small">RAG 업로드 서비스 :5001</text>

    <rect x="1570" y="158" width="250" height="90" rx="18" class="box-purple-soft"/>
    <text x="1695" y="191" class="label">seed_consult_kb.py</text>
    <text x="1695" y="215" class="small">상담 KB 시드</text>
  </g>

  <!-- Middle row -->
  <g>
    <rect x="210" y="430" width="230" height="90" rx="18" class="box-blue"/>
    <text x="325" y="463" class="label">bank_web.py</text>
    <text x="325" y="487" class="small">Flask + Socket.IO</text>

    <rect x="600" y="430" width="230" height="90" rx="18" class="box-blue"/>
    <text x="715" y="463" class="label">rag_core.py</text>
    <text x="715" y="487" class="small">검색 + 프롬프트 구성</text>

    <rect x="960" y="430" width="230" height="90" rx="18" class="box-blue"/>
    <text x="1075" y="463" class="label">bank_consult_bot.py</text>
    <text x="1075" y="487" class="small">상담 챗봇</text>

    <rect x="1290" y="430" width="230" height="90" rx="18" class="box-orange"/>
    <text x="1405" y="463" class="label">Kafka 브로커</text>
    <text x="1405" y="487" class="small">localhost:9092</text>

    <rect x="1620" y="430" width="240" height="90" rx="18" class="box-blue"/>
    <text x="1740" y="463" class="label">이체 요청 컨슈머</text>
    <text x="1740" y="487" class="small">bank_web.py 내부</text>
  </g>

  <!-- Bottom row -->
  <g>
    <rect x="100" y="760" width="180" height="82" rx="18" class="box-green"/>
    <text x="190" y="792" class="label">bank_db.py</text>
    <text x="190" y="816" class="small">SQLite</text>

    <rect x="320" y="760" width="180" height="82" rx="18" class="box-green"/>
    <text x="410" y="792" class="label">cache.py</text>
    <text x="410" y="816" class="small">TTL 캐시</text>

    <rect x="540" y="760" width="200" height="82" rx="18" class="box-green"/>
    <text x="640" y="792" class="label">monitoring.py</text>
    <text x="640" y="816" class="small">로컬 모니터링</text>

    <rect x="800" y="754" width="220" height="94" rx="18" class="box-green"/>
    <text x="910" y="787" class="label">Elasticsearch</text>
    <text x="910" y="811" class="small">상품 + 이체 로그</text>

    <rect x="1090" y="760" width="220" height="82" rx="18" class="box-green"/>
    <text x="1200" y="792" class="label">store.pkl</text>
    <text x="1200" y="816" class="small">임베딩 지식 저장소</text>

    <rect x="1380" y="754" width="220" height="94" rx="18" class="box-red"/>
    <text x="1490" y="787" class="label">Upstage API</text>
    <text x="1490" y="811" class="small">채팅 / 임베딩 / OCR</text>

    <rect x="1670" y="680" width="190" height="74" rx="18" class="box-orange"/>
    <text x="1765" y="710" class="label">bank-consult</text>
    <text x="1765" y="732" class="small">상담 메시지 토픽</text>

    <rect x="1650" y="782" width="210" height="74" rx="18" class="box-orange"/>
    <text x="1755" y="812" class="label">bank-transfer-requests</text>
    <text x="1755" y="834" class="small">비동기 이체 요청 토픽</text>

    <rect x="1670" y="884" width="190" height="74" rx="18" class="box-orange"/>
    <text x="1765" y="914" class="label">bank-transfers</text>
    <text x="1765" y="936" class="small">이체 이벤트 토픽</text>
  </g>

  <!-- Blue: user/admin/service -->
  <path d="M200 246 L200 320 L300 320 L300 430" fill="none" stroke="#3b82f6" stroke-width="3" marker-end="url(#arrow-blue)"/>
  <path d="M405 242 L405 430" fill="none" stroke="#3b82f6" stroke-width="3" marker-end="url(#arrow-blue)"/>

  <!-- Purple: agent flows -->
  <path d="M590 248 L590 330 L360 330 L360 430" fill="none" stroke="#8b5cf6" stroke-width="4" marker-end="url(#arrow-purple)"/>
  <path d="M655 248 L655 430" fill="none" stroke="#8b5cf6" stroke-width="4" marker-end="url(#arrow-purple)"/>
  <path d="M720 248 L720 330 L880 330 L880 754" fill="none" stroke="#8b5cf6" stroke-width="4" marker-end="url(#arrow-purple)"/>

  <!-- Source ingest -->
  <path d="M925 242 L925 754" fill="none" stroke="#16a34a" stroke-width="3.5" marker-end="url(#arrow-green)"/>
  <path d="M1155 242 L1155 330 L945 330 L945 754" fill="none" stroke="#16a34a" stroke-width="3.5" marker-end="url(#arrow-green)"/>
  <path d="M1410 248 L1410 330 L745 330 L745 430" fill="none" stroke="#3b82f6" stroke-width="3" marker-end="url(#arrow-blue)"/>
  <path d="M1695 248 L1695 330 L1245 330 L1245 760" fill="none" stroke="#16a34a" stroke-width="3.5" marker-end="url(#arrow-green)"/>

  <!-- Web outward -->
  <path d="M250 520 L250 620 L190 620 L190 760" fill="none" stroke="#16a34a" stroke-width="3.5" marker-end="url(#arrow-green)"/>
  <path d="M300 520 L300 620 L410 620 L410 760" fill="none" stroke="#16a34a" stroke-width="3.5" marker-end="url(#arrow-green)"/>
  <path d="M350 520 L350 620 L640 620 L640 760" fill="none" stroke="#3b82f6" stroke-width="3" marker-end="url(#arrow-blue)"/>
  <path d="M400 520 L400 620 L880 620 L880 754" fill="none" stroke="#16a34a" stroke-width="3.5" marker-end="url(#arrow-green)"/>
  <path d="M440 470 L600 470" fill="none" stroke="#3b82f6" stroke-width="3" marker-end="url(#arrow-blue)"/>
  <path d="M440 490 L960 490" fill="none" stroke="#3b82f6" stroke-width="3" marker-end="url(#arrow-blue)"/>
  <path d="M440 510 L1290 510" fill="none" stroke="#f97316" stroke-width="3.5" marker-end="url(#arrow-orange)"/>

  <!-- Service interactions -->
  <path d="M960 470 L830 470" fill="none" stroke="#3b82f6" stroke-width="3" marker-end="url(#arrow-blue)"/>
  <path d="M1405 520 L1405 580 L1740 580 L1740 430" fill="none" stroke="#f97316" stroke-width="3.5" marker-end="url(#arrow-orange)"/>
  <path d="M1680 520 L1680 900 L230 900 L230 842" fill="none" stroke="#16a34a" stroke-width="3.5" marker-end="url(#arrow-green)"/>
  <path d="M1710 520 L1710 880 L980 880 L980 848" fill="none" stroke="#16a34a" stroke-width="3.5" marker-end="url(#arrow-green)"/>

  <!-- RAG outward -->
  <path d="M715 520 L715 620 L1200 620 L1200 760" fill="none" stroke="#16a34a" stroke-width="3.5" marker-end="url(#arrow-green)"/>
  <path d="M760 520 L760 620 L1490 620 L1490 754" fill="none" stroke="#ef4444" stroke-width="3.5" marker-end="url(#arrow-red)"/>

  <!-- Kafka to topics -->
  <path d="M1450 520 L1450 640 L1765 640 L1765 680" fill="none" stroke="#f97316" stroke-width="3.5" marker-end="url(#arrow-orange)"/>
  <path d="M1405 520 L1405 720 L1755 720 L1755 782" fill="none" stroke="#f97316" stroke-width="3.5" marker-end="url(#arrow-orange)"/>
  <path d="M1360 520 L1360 800 L1765 800 L1765 884" fill="none" stroke="#f97316" stroke-width="3.5" marker-end="url(#arrow-orange)"/>
</svg>
